# xmcd CD Database Entry
#
# Track frame offsets:
# 150
# 13282
# 23257
# 43230
# 53526
# 68190
# 84277
# 97507
# 111461
# 124072
# 171847
# 198765
# 229935
# 253597
# 268207
# 277590
#
# Disc length: 4562 seconds
#
# Revision: 1
# Processed by: cddbd v1.4PL0 Copyright (c) Steve Scherf et al.
# Submitted via: tcd 2.0b
#
DISCID=ca11d010
DTITLE=Ween - Live in Toronto Canada
DYEAR=1900
DGENRE=
TTITLE0=Pretty Girl
TTITLE1=What Deaner Was Talkin' About
TTITLE2=Japanese Cowboy
TTITLE3=Pumpin' For The Man
TTITLE4=Mister Richard Smoker
TTITLE5=Spinal Meningitis Got Me Down
TTITLE6=Help Me Scrape The Mucus Off My Brain
TTITLE7=Wavin' My Dick In The Wind
TTITLE8=Push Th' Little Daisies
TTITLE9=Buenas Tardes Amigo
TTITLE10=Poopship Destroyer
TTITLE11=I'm Holding You
TTITLE12=Doctor Rock
TTITLE13=The H.I.V. Song
TTITLE14=Piano Man
TTITLE15=Fluffy
EXTD=Featuring the Shit Creek Boys
EXTT0=
EXTT1=
EXTT2=
EXTT3=
EXTT4=
EXTT5=
EXTT6=
EXTT7=
EXTT8=
EXTT9=
EXTT10=
EXTT11=
EXTT12=
EXTT13=
EXTT14=written by Billy Joel
EXTT15=
PLAYORDER=
